<?xml version="1.0" encoding="UTF-8"?>
<svg xmlns="http://www.w3.org/2000/svg" xmlns:xlink="http://www.w3.org/1999/xlink" width="226.38pt" height="226.38pt" viewBox="0 0 226.38 226.38" version="1.2">
<g id="surface1">
<path style="fill:none;stroke-width:5;stroke-linecap:round;stroke-linejoin:round;stroke:rgb(0%,0%,0%);stroke-opacity:1;stroke-miterlimit:10;" d="M 53.897208 53.896954 L 2209.863877 53.896954 L 2209.863877 2209.863622 L 53.897208 2209.863622 L 53.897208 53.896954 " transform="matrix(0.0997269,0,0,-0.0997269,0,225.761693)"/>
<path style=" stroke:none;fill-rule:nonzero;fill:rgb(0%,0%,0%);fill-opacity:1;" d="M 5.375 220.386719 L 32.25 220.386719 L 32.25 193.511719 L 5.375 193.511719 Z M 5.375 220.386719 "/>
<path style=" stroke:none;fill-rule:nonzero;fill:rgb(0%,0%,0%);fill-opacity:1;" d="M 59.125 220.386719 L 86.003906 220.386719 L 86.003906 193.511719 L 59.125 193.511719 Z M 59.125 220.386719 "/>
<path style=" stroke:none;fill-rule:nonzero;fill:rgb(0%,0%,0%);fill-opacity:1;" d="M 112.878906 220.386719 L 139.753906 220.386719 L 139.753906 193.511719 L 112.878906 193.511719 Z M 112.878906 220.386719 "/>
<path style=" stroke:none;fill-rule:nonzero;fill:rgb(0%,0%,0%);fill-opacity:1;" d="M 166.632812 220.386719 L 193.503906 220.386719 L 193.503906 193.511719 L 166.632812 193.511719 Z M 166.632812 220.386719 "/>
<path style=" stroke:none;fill-rule:nonzero;fill:rgb(0%,0%,0%);fill-opacity:1;" d="M 32.25 193.511719 L 59.125 193.511719 L 59.125 166.636719 L 32.25 166.636719 Z M 32.25 193.511719 "/>
<path style=" stroke:none;fill-rule:nonzero;fill:rgb(0%,0%,0%);fill-opacity:1;" d="M 86.003906 193.511719 L 112.878906 193.511719 L 112.878906 166.636719 L 86.003906 166.636719 Z M 86.003906 193.511719 "/>
<path style=" stroke:none;fill-rule:nonzero;fill:rgb(0%,0%,0%);fill-opacity:1;" d="M 139.753906 193.511719 L 166.632812 193.511719 L 166.632812 166.636719 L 139.753906 166.636719 Z M 139.753906 193.511719 "/>
<path style=" stroke:none;fill-rule:nonzero;fill:rgb(0%,0%,0%);fill-opacity:1;" d="M 193.503906 193.511719 L 220.382812 193.511719 L 220.382812 166.636719 L 193.503906 166.636719 Z M 193.503906 193.511719 "/>
<path style=" stroke:none;fill-rule:nonzero;fill:rgb(0%,0%,0%);fill-opacity:1;" d="M 5.375 166.636719 L 32.25 166.636719 L 32.25 139.757812 L 5.375 139.757812 Z M 5.375 166.636719 "/>
<path style=" stroke:none;fill-rule:nonzero;fill:rgb(0%,0%,0%);fill-opacity:1;" d="M 59.125 166.636719 L 86.003906 166.636719 L 86.003906 139.757812 L 59.125 139.757812 Z M 59.125 166.636719 "/>
<path style=" stroke:none;fill-rule:nonzero;fill:rgb(0%,0%,0%);fill-opacity:1;" d="M 112.878906 166.636719 L 139.753906 166.636719 L 139.753906 139.757812 L 112.878906 139.757812 Z M 112.878906 166.636719 "/>
<path style=" stroke:none;fill-rule:nonzero;fill:rgb(0%,0%,0%);fill-opacity:1;" d="M 166.632812 166.636719 L 193.503906 166.636719 L 193.503906 139.757812 L 166.632812 139.757812 Z M 166.632812 166.636719 "/>
<path style=" stroke:none;fill-rule:nonzero;fill:rgb(0%,0%,0%);fill-opacity:1;" d="M 32.25 139.757812 L 59.125 139.757812 L 59.125 112.882812 L 32.25 112.882812 Z M 32.25 139.757812 "/>
<path style=" stroke:none;fill-rule:nonzero;fill:rgb(0%,0%,0%);fill-opacity:1;" d="M 86.003906 139.757812 L 112.878906 139.757812 L 112.878906 112.882812 L 86.003906 112.882812 Z M 86.003906 139.757812 "/>
<path style=" stroke:none;fill-rule:nonzero;fill:rgb(0%,0%,0%);fill-opacity:1;" d="M 139.753906 139.757812 L 166.632812 139.757812 L 166.632812 112.882812 L 139.753906 112.882812 Z M 139.753906 139.757812 "/>
<path style=" stroke:none;fill-rule:nonzero;fill:rgb(0%,0%,0%);fill-opacity:1;" d="M 193.503906 139.757812 L 220.382812 139.757812 L 220.382812 112.882812 L 193.503906 112.882812 Z M 193.503906 139.757812 "/>
<path style=" stroke:none;fill-rule:nonzero;fill:rgb(0%,0%,0%);fill-opacity:1;" d="M 5.375 112.882812 L 32.25 112.882812 L 32.25 86.007812 L 5.375 86.007812 Z M 5.375 112.882812 "/>
<path style=" stroke:none;fill-rule:nonzero;fill:rgb(0%,0%,0%);fill-opacity:1;" d="M 59.125 112.882812 L 86.003906 112.882812 L 86.003906 86.007812 L 59.125 86.007812 Z M 59.125 112.882812 "/>
<path style=" stroke:none;fill-rule:nonzero;fill:rgb(0%,0%,0%);fill-opacity:1;" d="M 112.878906 112.882812 L 139.753906 112.882812 L 139.753906 86.007812 L 112.878906 86.007812 Z M 112.878906 112.882812 "/>
<path style=" stroke:none;fill-rule:nonzero;fill:rgb(0%,0%,0%);fill-opacity:1;" d="M 166.632812 112.882812 L 193.503906 112.882812 L 193.503906 86.007812 L 166.632812 86.007812 Z M 166.632812 112.882812 "/>
<path style=" stroke:none;fill-rule:nonzero;fill:rgb(0%,0%,0%);fill-opacity:1;" d="M 32.25 86.007812 L 59.125 86.007812 L 59.125 59.128906 L 32.25 59.128906 Z M 32.25 86.007812 "/>
<path style=" stroke:none;fill-rule:nonzero;fill:rgb(0%,0%,0%);fill-opacity:1;" d="M 86.003906 86.007812 L 112.878906 86.007812 L 112.878906 59.128906 L 86.003906 59.128906 Z M 86.003906 86.007812 "/>
<path style=" stroke:none;fill-rule:nonzero;fill:rgb(0%,0%,0%);fill-opacity:1;" d="M 139.753906 86.007812 L 166.632812 86.007812 L 166.632812 59.128906 L 139.753906 59.128906 Z M 139.753906 86.007812 "/>
<path style=" stroke:none;fill-rule:nonzero;fill:rgb(0%,0%,0%);fill-opacity:1;" d="M 193.503906 86.007812 L 220.382812 86.007812 L 220.382812 59.128906 L 193.503906 59.128906 Z M 193.503906 86.007812 "/>
<path style=" stroke:none;fill-rule:nonzero;fill:rgb(0%,0%,0%);fill-opacity:1;" d="M 5.375 59.128906 L 32.25 59.128906 L 32.25 32.257812 L 5.375 32.257812 Z M 5.375 59.128906 "/>
<path style=" stroke:none;fill-rule:nonzero;fill:rgb(0%,0%,0%);fill-opacity:1;" d="M 59.125 59.128906 L 86.003906 59.128906 L 86.003906 32.257812 L 59.125 32.257812 Z M 59.125 59.128906 "/>
<path style=" stroke:none;fill-rule:nonzero;fill:rgb(0%,0%,0%);fill-opacity:1;" d="M 112.878906 59.128906 L 139.753906 59.128906 L 139.753906 32.257812 L 112.878906 32.257812 Z M 112.878906 59.128906 "/>
<path style=" stroke:none;fill-rule:nonzero;fill:rgb(0%,0%,0%);fill-opacity:1;" d="M 166.632812 59.128906 L 193.503906 59.128906 L 193.503906 32.257812 L 166.632812 32.257812 Z M 166.632812 59.128906 "/>
<path style=" stroke:none;fill-rule:nonzero;fill:rgb(0%,0%,0%);fill-opacity:1;" d="M 32.25 32.257812 L 59.125 32.257812 L 59.125 5.378906 L 32.25 5.378906 Z M 32.25 32.257812 "/>
<path style=" stroke:none;fill-rule:nonzero;fill:rgb(0%,0%,0%);fill-opacity:1;" d="M 86.003906 32.257812 L 112.878906 32.257812 L 112.878906 5.378906 L 86.003906 5.378906 Z M 86.003906 32.257812 "/>
<path style=" stroke:none;fill-rule:nonzero;fill:rgb(0%,0%,0%);fill-opacity:1;" d="M 139.753906 32.257812 L 166.632812 32.257812 L 166.632812 5.378906 L 139.753906 5.378906 Z M 139.753906 32.257812 "/>
<path style=" stroke:none;fill-rule:nonzero;fill:rgb(0%,0%,0%);fill-opacity:1;" d="M 193.503906 32.257812 L 220.382812 32.257812 L 220.382812 5.378906 L 193.503906 5.378906 Z M 193.503906 32.257812 "/>
</g>
</svg>
